<?xml version="1.0" encoding="UTF-8"?>
<svg id="Layer_2" data-name="Layer 2" xmlns="http://www.w3.org/2000/svg" viewBox="0 0 500.91 277.74">
  <g id="Layer_2-2" data-name="Layer 2">
    <g id="Layer_1-2" data-name="Layer 1-2">
      <g>
        <g fill="black">
          <path d="m6.83,244.25c-4.56-4.37-6.83-10.07-6.83-17.08h13.67c0,4.37,1.87,7.56,5.6,9.57,1.46.73,3.1,1.28,4.92,1.64,1.46.27,2.96.41,4.51.41,9.11,0,13.67-2.96,13.67-8.88,0-5.01-5.19-7.97-15.58-8.88-16.04-1.46-24.05-8.06-24.05-19.82,0-5.47,1.82-10.07,5.47-13.8,4.37-4.46,10.75-6.7,19.13-6.7s15.17,2.37,19.82,7.11c4.1,4.1,6.15,9.48,6.15,16.13h-13.67c0-6.83-4.1-10.25-12.3-10.25-7.29,0-10.93,2.51-10.93,7.52,0,4.37,3.87,6.88,11.62,7.52,9.57.91,16.54,2.92,20.91,6.01,4.74,3.37,7.11,8.43,7.11,15.17,0,5.83-2.05,10.75-6.15,14.76-4.83,4.74-11.89,7.11-21.18,7.11s-16.77-2.5-21.87-7.52l-.02-.02Z"/>
          <path d="m128.33,182.07l-32.53,95.67h-14.35l9.29-27.33h-8.88l-23.23-68.33h14.35l20.5,60.27,20.5-60.27h14.35,0Z"/>
          <path d="m137.22,244.25c-4.56-4.37-6.83-10.07-6.83-17.08h13.67c0,4.37,1.87,7.56,5.6,9.57,1.46.73,3.1,1.28,4.92,1.64,1.46.27,2.96.41,4.51.41,9.11,0,13.67-2.96,13.67-8.88,0-5.01-5.19-7.97-15.58-8.88-16.04-1.46-24.05-8.06-24.05-19.82,0-5.47,1.82-10.07,5.47-13.8,4.37-4.46,10.75-6.7,19.13-6.7s15.17,2.37,19.82,7.11c4.1,4.1,6.15,9.48,6.15,16.13h-13.67c0-6.83-4.1-10.25-12.3-10.25-7.29,0-10.93,2.51-10.93,7.52,0,4.37,3.87,6.88,11.62,7.52,9.57.91,16.54,2.92,20.91,6.01,4.74,3.37,7.11,8.43,7.11,15.17,0,5.83-2.05,10.75-6.15,14.76-4.83,4.74-11.89,7.11-21.18,7.11s-16.77-2.5-21.87-7.52l-.02-.02Z"/>
          <path d="m219.9,182.07h16.4v12.98h-16.4v55.35h-13.67v-55.35h-15.03v-12.98h15.03v-15.03l13.67-4.1v19.13h0Z"/>
          <path d="m254.89,222.38c1.27,4.83,3.83,8.7,7.65,11.62,3.92,3.01,8.52,4.51,13.8,4.51,8.02,0,14.17-3.1,18.45-9.29h15.17c-2.55,6.83-6.79,12.3-12.71,16.4-6.01,4.1-12.98,6.15-20.91,6.15-10.39,0-19-3.37-25.83-10.11-6.74-6.65-10.11-15.12-10.11-25.42s3.37-18.77,10.11-25.42c6.83-6.74,15.44-10.11,25.83-10.11s18.95,3.37,25.69,10.11c6.83,6.65,10.25,15.13,10.25,25.42,0,1.64-.18,3.69-.55,6.15h-56.85,0Zm42.91-12.3c-1.28-4.83-3.83-8.7-7.65-11.62-3.92-3.01-8.52-4.51-13.8-4.51s-9.89,1.5-13.8,4.51c-3.83,2.92-6.38,6.79-7.65,11.62h42.91-.01Z"/>
          <path d="m404.54,180.7c8.38,0,15.17,2.78,20.36,8.34,5.1,5.47,7.65,12.48,7.65,21.05v40.32h-13.67v-40.32c0-5.01-1.46-9.02-4.37-12.03-3.01-2.91-7.02-4.37-12.03-4.37s-9.02,1.46-12.03,4.37c-2.92,3.01-4.37,7.02-4.37,12.03v40.32h-13.67v-40.32c0-5.01-1.46-9.02-4.37-12.03-3.01-2.91-7.02-4.37-12.03-4.37s-9.02,1.46-12.03,4.37c-2.92,3.01-4.37,7.02-4.37,12.03v40.32h-13.67v-68.33h13.67v7.11c5.01-5.65,11.62-8.47,19.82-8.47,9.84,0,17.22,3.87,22.14,11.62,5.28-7.74,12.94-11.62,22.96-11.62v-.02Z"/>
          <path d="m451.69,244.25c-4.56-4.37-6.83-10.07-6.83-17.08h13.67c0,4.37,1.87,7.56,5.6,9.57,1.46.73,3.1,1.28,4.92,1.64,1.46.27,2.96.41,4.51.41,9.11,0,13.67-2.96,13.67-8.88,0-5.01-5.19-7.97-15.58-8.88-16.04-1.46-24.05-8.06-24.05-19.82,0-5.47,1.82-10.07,5.47-13.8,4.37-4.46,10.75-6.7,19.13-6.7s15.17,2.37,19.82,7.11c4.1,4.1,6.15,9.48,6.15,16.13h-13.67c0-6.83-4.1-10.25-12.3-10.25-7.29,0-10.93,2.51-10.93,7.52,0,4.37,3.87,6.88,11.62,7.52,9.57.91,16.54,2.92,20.91,6.01,4.74,3.37,7.11,8.43,7.11,15.17,0,5.83-2.05,10.75-6.15,14.76-4.83,4.74-11.89,7.11-21.18,7.11s-16.77-2.5-21.87-7.52l-.02-.02Z"/>
        </g>
        <path d="m457.87,114.89l-1.04-.74c-.07-.02-.13-.05-.2-.07l1.23.83.52.35-.51-.37h0Z"/>
        <g fill="black">
          <path d="m500.89,145.6l-.12.25h-33.48l-23.2-16.56c-9.54,7.55-20.58,12.25-33.13,14.11-4.11.61-8.38.92-12.82.92-20.93,0-38.27-6.8-52-20.4s-20.6-30.8-20.6-51.6c0-15.05,3.6-28.21,10.78-39.49l16.7,11.28c-4.99,8.08-7.48,17.48-7.48,28.21,0,15.2,5,27.73,15,37.6,9.87,10,22.4,15,37.6,15s27.8-5,37.8-15c1.97-1.97,3.74-4.04,5.31-6.23l15.36,10.38h.02l1.23.84.52.35.09.06,42.42,30.28h0Z"/>
          <path d="m470.74,72.32c0,10.47-1.74,20.02-5.22,28.66l-17.18-11.6c1.6-5.25,2.4-10.94,2.4-17.06,0-15.2-4.93-27.73-14.8-37.6s-22.6-15-37.8-15c-13.76,0-25.33,4.1-34.73,12.3l-17.05-11.51C360.05,7.05,377.32.32,398.14.32s38.27,6.8,52,20.4c13.73,13.6,20.6,30.8,20.6,51.6h0Z"/>
        </g>
        <g fill="black">
          <path d="m102,140h-22l-46-68h19.2c7.73,0,14.13-2.53,19.2-7.6,5.07-4.93,7.6-11.2,7.6-18.8s-2.53-14.07-7.6-19c-5.07-5.07-11.47-7.6-19.2-7.6H20v121H0V0h53.2c14.13,0,25.53,4.2,34.2,12.6,8.4,8.27,12.6,18.93,12.6,32,0,10.67-3,19.87-9,27.6-6,7.73-14.2,12.8-24.6,15.2l35.6,52.6Z"/>
          <path d="m131,99c1.87,7.07,5.6,12.73,11.2,17,5.73,4.4,12.47,6.6,20.2,6.6,11.73,0,20.73-4.53,27-13.6h22.2c-3.73,10-9.93,18-18.6,24-8.8,6-19,9-30.6,9-15.2,0-27.8-4.93-37.8-14.8-9.87-9.73-14.8-22.13-14.8-37.2s4.93-27.47,14.8-37.2c10-9.87,22.6-14.8,37.8-14.8s27.73,4.93,37.6,14.8c10,9.73,15,22.13,15,37.2,0,2.4-.27,5.4-.8,9h-83.2,0Zm62.8-18c-1.87-7.07-5.6-12.73-11.2-17-5.73-4.4-12.47-6.6-20.2-6.6s-14.47,2.2-20.2,6.6c-5.6,4.27-9.33,9.93-11.2,17h62.8,0Z"/>
          <path d="m235,131c-6.67-6.4-10-14.73-10-25h20c0,6.4,2.73,11.07,8.2,14,2.13,1.07,4.53,1.87,7.2,2.4,2.13.4,4.33.6,6.6.6,13.33,0,20-4.33,20-13,0-7.33-7.6-11.67-22.8-13-23.47-2.13-35.2-11.8-35.2-29,0-8,2.67-14.73,8-20.2,6.4-6.53,15.73-9.8,28-9.8s22.2,3.47,29,10.4c6,6,9,13.87,9,23.6h-20c0-10-6-15-18-15-10.67,0-16,3.67-16,11,0,6.4,5.67,10.07,17,11,14,1.33,24.2,4.27,30.6,8.8,6.93,4.93,10.4,12.33,10.4,22.2,0,8.53-3,15.73-9,21.6-7.07,6.93-17.4,10.4-31,10.4s-24.53-3.67-32-11Z"/>
        </g>
      </g>
    </g>
  </g>
</svg>