<?xml version="1.0" encoding="UTF-8"?>
<svg xmlns="http://www.w3.org/2000/svg" viewBox="0 0 500.9 277.8">
  <defs>
    <style>
      .cls-1 {
        fill: #fff;
      }

      .cls-2 {
        fill: #f36e23;
      }
    </style>
  </defs>
  <g>
    <g>
      <g>
        <g class="cls-1">
          <path d="m6.8,244.2c-4.5-4.3-6.8-10-6.8-17h13.7c0,4.4,1.9,7.6,5.6,9.6,1.5.7,3.1,1.3,4.9,1.6,1.5.3,3,.4,4.5.4,9.1,0,13.7-3,13.7-8.9,0-5-5.2-8-15.6-8.9-16-1.5-24-8.1-24-19.8,0-5.5,1.8-10.1,5.5-13.8,4.4-4.5,10.8-6.7,19.1-6.7s15.2,2.4,19.8,7.1c4.1,4.1,6.2,9.5,6.2,16.1h-13.8c0-6.8-4.1-10.2-12.3-10.2-7.3,0-10.9,2.5-10.9,7.5,0,4.4,3.9,6.9,11.6,7.5,9.6.9,16.5,2.9,20.9,6,4.7,3.4,7.1,8.4,7.1,15.2,0,5.8-2,10.8-6.2,14.8-4.8,4.7-11.9,7.1-21.2,7.1s-16.6-2.5-21.8-7.6h0Z"/>
          <path d="m128.3,182.1l-32.5,95.7h-14.3l9.3-27.3h-8.9l-23.2-68.3h14.3l20.5,60.3,20.5-60.3,14.3-.1h0Z"/>
          <path d="m137.2,244.2c-4.6-4.4-6.8-10.1-6.8-17.1h13.7c0,4.4,1.9,7.6,5.6,9.6,1.5.7,3.1,1.3,4.9,1.6,1.5.3,3,.4,4.5.4,9.1,0,13.7-3,13.7-8.9,0-5-5.2-8-15.6-8.9-16-1.5-24.1-8.1-24.1-19.8,0-5.5,1.8-10.1,5.5-13.8,4.4-4.5,10.8-6.7,19.1-6.7s15.2,2.4,19.8,7.1c4.1,4.1,6.1,9.5,6.1,16.1h-13.6c0-6.8-4.1-10.2-12.3-10.2-7.3,0-10.9,2.5-10.9,7.5,0,4.4,3.9,6.9,11.6,7.5,9.6.9,16.5,2.9,20.9,6,4.7,3.4,7.1,8.4,7.1,15.2,0,5.8-2.1,10.8-6.1,14.8-4.8,4.7-11.9,7.1-21.2,7.1s-16.8-2.4-21.9-7.5h0Z"/>
          <path d="m219.9,182.1h16.4v13h-16.4v55.3h-13.7v-55.4h-15v-13h15v-15l13.7-4.1v19.2h0Z"/>
          <path d="m254.9,222.4c1.3,4.8,3.8,8.7,7.7,11.6,3.9,3,8.5,4.5,13.8,4.5,8,0,14.2-3.1,18.5-9.3h15.1c-2.5,6.8-6.8,12.3-12.7,16.4-6,4.1-13,6.1-20.9,6.1-10.4,0-19-3.4-25.8-10.1-6.7-6.6-10.1-15.1-10.1-25.4s3.4-18.8,10.1-25.4c6.8-6.7,15.4-10.1,25.8-10.1s19,3.4,25.7,10.1c6.8,6.6,10.2,15.1,10.2,25.4,0,1.6-.2,3.7-.5,6.1l-56.9.1h0Zm42.9-12.3c-1.3-4.8-3.8-8.7-7.6-11.6-3.9-3-8.5-4.5-13.8-4.5s-9.9,1.5-13.8,4.5c-3.8,2.9-6.4,6.8-7.6,11.6h42.8Z"/>
          <path d="m404.5,180.7c8.4,0,15.2,2.8,20.4,8.3,5.1,5.5,7.6,12.5,7.6,21.1v40.3h-13.7v-40.3c0-5-1.5-9-4.4-12-3-2.9-7-4.4-12-4.4s-9,1.5-12,4.4c-2.9,3-4.4,7-4.4,12v40.3h-13.7v-40.3c0-5-1.5-9-4.4-12-3-2.9-7-4.4-12-4.4s-9,1.5-12,4.4c-2.9,3-4.4,7-4.4,12v40.3h-13.7v-68.3h13.7v7.1c5-5.6,11.6-8.5,19.8-8.5,9.8,0,17.2,3.9,22.1,11.6,5.5-7.7,13.1-11.6,23.1-11.6h0Z"/>
          <path d="m451.7,244.2c-4.6-4.4-6.8-10.1-6.8-17.1h13.7c0,4.4,1.9,7.6,5.6,9.6,1.5.7,3.1,1.3,4.9,1.6,1.5.3,3,.4,4.5.4,9.1,0,13.7-3,13.7-8.9,0-5-5.2-8-15.6-8.9-16-1.5-24-8.1-24-19.8,0-5.5,1.8-10.1,5.5-13.8,4.4-4.5,10.8-6.7,19.1-6.7s15.2,2.4,19.8,7.1c4.1,4.1,6.1,9.5,6.1,16.1h-13.7c0-6.8-4.1-10.2-12.3-10.2-7.3,0-10.9,2.5-10.9,7.5,0,4.4,3.9,6.9,11.6,7.5,9.6.9,16.5,2.9,20.9,6,4.7,3.4,7.1,8.4,7.1,15.2,0,5.8-2,10.8-6.1,14.8-4.8,4.7-11.9,7.1-21.2,7.1s-16.8-2.4-21.9-7.5h0Z"/>
        </g>
        <g class="cls-2">
          <path d="m500.9,145.6l-.1.2h-33.5l-23.2-16.6c-9.5,7.6-20.6,12.2-33.1,14.1-4.1.6-8.4.9-12.8.9-20.9,0-38.3-6.8-52-20.4s-20.6-30.8-20.6-51.6c0-15,3.6-28.2,10.8-39.5l16.6,11.4c-5,8.1-7.5,17.5-7.5,28.2,0,15.2,5,27.7,15,37.6,9.9,10,22.4,15,37.6,15s27.8-5,37.8-15c2-2,3.7-4,5.3-6.2l15.4,10.4h0l1.2.8.5.3.1.1,42.5,30.3h0Z"/>
          <path d="m470.7,72.3c0,10.5-1.7,20-5.2,28.7l-17.2-11.6c1.6-5.2,2.4-10.9,2.4-17.1,0-15.2-4.9-27.7-14.8-37.6s-22.6-15-37.8-15c-13.8,0-25.3,4.1-34.7,12.3l-17-11.5C360.1,7,377.4.3,398.2.3s38.3,6.8,52,20.4c13.7,13.6,20.5,30.8,20.5,51.6h0Z"/>
        </g>
        <g class="cls-1">
          <path d="m102,140h-22l-46-68h19.2c7.7,0,14.1-2.5,19.2-7.6,5.1-4.9,7.6-11.2,7.6-18.8s-2.5-14.1-7.6-19c-5.1-5.1-11.5-7.6-19.2-7.6H20v121H0V0h53.2c14.1,0,25.5,4.2,34.2,12.6,8.4,8.3,12.6,18.9,12.6,32,0,10.7-3,19.9-9,27.6s-14.2,12.8-24.6,15.2l35.6,52.6Z"/>
          <path d="m131,99c1.9,7.1,5.6,12.7,11.2,17,5.7,4.4,12.5,6.6,20.2,6.6,11.7,0,20.7-4.5,27-13.6h22.2c-3.7,10-9.9,18-18.6,24-8.8,6-19,9-30.6,9-15.2,0-27.8-4.9-37.8-14.8-9.9-9.7-14.8-22.1-14.8-37.2s4.9-27.5,14.8-37.2c10-9.9,22.6-14.8,37.8-14.8s27.7,4.9,37.6,14.8c10,9.7,15,22.1,15,37.2,0,2.4-.3,5.4-.8,9h-83.2Zm62.8-18c-1.9-7.1-5.6-12.7-11.2-17-5.7-4.4-12.5-6.6-20.2-6.6s-14.5,2.2-20.2,6.6c-5.6,4.3-9.3,9.9-11.2,17h62.8Z"/>
          <path d="m235,131c-6.7-6.4-10-14.7-10-25h20c0,6.4,2.7,11.1,8.2,14,2.1,1.1,4.5,1.9,7.2,2.4,2.1.4,4.3.6,6.6.6,13.3,0,20-4.3,20-13,0-7.3-7.6-11.7-22.8-13-23.5-2.1-35.2-11.8-35.2-29,0-8,2.7-14.7,8-20.2,6.4-6.5,15.7-9.8,28-9.8s22.2,3.5,29,10.4c6,6,9,13.9,9,23.6h-20c0-10-6-15-18-15-10.7,0-16,3.7-16,11,0,6.4,5.7,10.1,17,11,14,1.3,24.2,4.3,30.6,8.8,6.9,4.9,10.4,12.3,10.4,22.2,0,8.5-3,15.7-9,21.6-7.1,6.9-17.4,10.4-31,10.4s-24.5-3.7-32-11Z"/>
        </g>
      </g>
    </g>
  </g>
</svg>